<?xml version="1.0" encoding="UTF-8"?>
<svg width="600px" height="280px" viewBox="0 0 600 280" version="1.1" xmlns="http://www.w3.org/2000/svg" xmlns:xlink="http://www.w3.org/1999/xlink">
    <!-- Generator: Sketch 63.1 (92452) - https://sketch.com -->
    <title>debank-logo</title>
    <desc>Created with Sketch.</desc>
    <g id="debank-logo" stroke="none" stroke-width="1" fill="none" fill-rule="evenodd">
        <g id="Group-2" transform="translate(106.500000, 89.500000)">
            <g id="Group" transform="translate(0.000000, -0.000000)">
                <path d="M88.5620745,70.4737993 C88.5620745,87.154487 74.8368698,100.676856 57.9059718,100.676856 L1.28869716e-12,100.676856 L1.28869716e-12,80.541485 L57.9059718,80.541485 C63.5496045,80.541485 68.1246727,76.0340286 68.1246727,70.4737993 C68.1246727,64.9135701 63.5496045,60.4061137 57.9059718,60.4061137 L37.46857,60.4061137 L37.46857,40.2707425 L57.9059718,40.2707425 C63.5496045,40.2707425 68.1246727,35.7632861 68.1246727,30.2030569 C68.1246727,24.6428276 63.5496045,20.1353712 57.9059718,20.1353712 L1.28869716e-12,20.1353712 L1.28869716e-12,3.85821299e-11 L57.9059718,3.85821299e-11 C74.8368698,3.85821299e-11 88.5620745,13.5223692 88.5620745,30.2030569 C88.5620745,37.9386078 85.6103663,44.9949386 80.7560754,50.3384281 C85.6103663,55.6819176 88.5620745,62.7382484 88.5620745,70.4737993 Z" id="Path" fill="#FE815F" opacity="0.800000012"></path>
                <path d="M6.75299823e-14,80.541485 L49.7352519,80.541485 C39.1708131,92.7681525 22.3509579,100.676856 3.40623363,100.676856 C2.26277874,100.676856 1.12706478,100.648045 6.75299823e-14,100.591211 L6.75299823e-14,80.541485 L6.75299823e-14,80.541485 Z M60.1538762,60.4061137 L40.8748036,60.4061137 L40.8748036,40.2707425 L60.1538762,40.2707425 C60.9134619,43.5237118 61.3122054,46.8905897 61.3122054,50.3384281 C61.3122054,53.7862665 60.9134619,57.1531444 60.1538762,60.4061137 Z M49.7352519,20.1353712 L3.66998165e-12,20.1353712 L3.66998165e-12,0.0856451422 C1.12706478,0.028811562 2.26277874,0 3.40623363,0 C22.3509579,0 39.1708131,7.90870364 49.7352519,20.1353712 L49.7352519,20.1353712 Z" id="Shape" fill="#000000" fill-rule="nonzero" opacity="0.119999997"></path>
                <path d="M1.17614719e-12,3.86271499e-11 C28.2181634,3.86271499e-11 51.0935045,22.5372819 51.0935045,50.3384281 C51.0935045,78.1395743 28.2181634,100.676856 1.17614719e-12,100.676856 L1.17614719e-12,80.541485 C16.930898,80.541485 30.6561027,67.0191158 30.6561027,50.3384281 C30.6561027,33.6577404 16.930898,20.1353712 1.17614719e-12,20.1353712 L1.17614719e-12,3.86271499e-11 Z" id="Path" fill="#FF6238" fill-rule="nonzero"></path>
            </g>
            <path d="M174.637686,32.3777278 C174.637686,36.6331673 173.848382,40.3051446 172.269752,43.39377 C170.691121,46.4823955 168.60919,49.0218938 166.023896,51.0123413 C163.438602,53.0027888 160.521611,54.4670041 157.272834,55.405031 C154.024058,56.343058 150.729574,56.8120645 147.389282,56.8120645 L129.269437,56.8120645 L129.269437,8.21793424 L146.840196,8.21793424 C150.272002,8.21793424 153.658,8.6183056 156.998291,9.41906034 C160.338582,10.2198151 163.31277,11.5467602 165.920942,13.3999354 C168.529115,15.2531107 170.633924,17.7354131 172.235434,20.8469172 C173.836943,23.9584214 174.637686,27.8019864 174.637686,32.3777278 Z M162.420518,32.3777278 C162.420518,29.632283 161.97439,27.3558858 161.08212,25.548468 C160.18985,23.7410501 159.000176,22.2997132 157.51306,21.224414 C156.025944,20.1491148 154.332945,19.3826896 152.434012,18.9251155 C150.535079,18.4675413 148.578979,18.2387577 146.565653,18.2387577 L140.731612,18.2387577 L140.731612,46.6539695 L146.29111,46.6539695 C148.395951,46.6539695 150.420686,46.4137466 152.365376,45.9332938 C154.310066,45.452841 156.025944,44.6635374 157.51306,43.5653595 C159.000176,42.4671816 160.18985,41.0029663 161.08212,39.1726697 C161.97439,37.3423732 162.420518,35.0774152 162.420518,32.3777278 Z M205.317878,35.8095167 C205.317878,34.0249775 204.757359,32.4921272 203.636302,31.2109196 C202.515245,29.929712 200.833686,29.2891178 198.591572,29.2891178 C197.493394,29.2891178 196.486746,29.4607056 195.571598,29.8038862 C194.65645,30.1470668 193.855707,30.6160732 193.169346,31.2109196 C192.482985,31.805766 191.933904,32.5035561 191.522087,33.3043108 C191.11027,34.1050655 190.881487,34.9401258 190.835729,35.8095167 L205.317878,35.8095167 Z M215.681881,40.1335706 L215.681881,41.5062862 C215.681881,41.9638603 215.659002,42.3985492 215.613245,42.8103659 L190.835729,42.8103659 C190.927244,43.7712716 191.213224,44.6406494 191.693677,45.4185255 C192.174129,46.1964015 192.791845,46.8713132 193.546843,47.4432809 C194.30184,48.0152486 195.148339,48.4613767 196.086366,48.7816785 C197.024393,49.1019804 197.996724,49.262129 199.003387,49.262129 C200.787926,49.262129 202.297898,48.9303927 203.533348,48.2669102 C204.768798,47.6034277 205.775446,46.7454891 206.553322,45.6930686 L214.377801,50.6348445 C212.776292,52.9684726 210.660043,54.7644242 208.028992,56.022753 C205.39794,57.2810756 202.343679,57.9102369 198.866115,57.9102369 C196.3037,57.9102369 193.878594,57.5098655 191.590723,56.7091108 C189.302852,55.9083561 187.300995,54.7415595 185.585092,53.2086862 C183.869189,51.6758128 182.519366,49.7883478 181.535582,47.5462346 C180.551797,45.3041213 180.059912,42.7417446 180.059912,39.8590275 C180.059912,37.0678253 180.540358,34.5397661 181.501264,32.2747741 C182.462169,30.0097822 183.766236,28.0879996 185.413503,26.5093689 C187.06077,24.9307381 189.005431,23.7067456 191.247544,22.8373548 C193.489657,21.9679639 195.914764,21.533275 198.522936,21.533275 C201.039594,21.533275 203.350309,21.9565247 205.45515,22.8030369 C207.559991,23.649549 209.367382,24.8735415 210.877376,26.475051 C212.387371,28.0765604 213.565607,30.0212213 214.412119,32.309092 C215.258631,34.5969627 215.681881,37.2050962 215.681881,40.1335706 Z M261.187401,42.6730944 C261.187401,45.3270244 260.661199,47.5576648 259.608778,49.3650827 C258.556358,51.1725005 257.160777,52.6252766 255.421996,53.7234545 C253.683214,54.8216324 251.704236,55.610936 249.485001,56.0913888 C247.265766,56.5718417 244.989369,56.8120645 242.655741,56.8120645 L223.300452,56.8120645 L223.300452,8.21793424 L242.655741,8.21793424 C244.531795,8.21793424 246.453578,8.41240033 248.421146,8.80133834 C250.388715,9.19027636 252.173228,9.8537489 253.774737,10.7917759 C255.376247,11.7298029 256.680313,12.999552 257.686976,14.6010615 C258.69364,16.202571 259.196964,18.2387454 259.196964,20.7096457 C259.196964,23.4093331 258.464856,25.6399735 257.000619,27.401634 C255.536381,29.1632944 253.614599,30.4330436 251.235213,31.2109196 L251.235213,31.3481911 C252.607936,31.5769782 253.900563,32.0002279 255.113135,32.617953 C256.325706,33.2356781 257.378111,34.0249817 258.270381,34.9858873 C259.16265,35.946793 259.871879,37.0678328 260.39809,38.3490404 C260.9243,39.630248 261.187401,41.0715849 261.187401,42.6730944 Z M247.87206,22.2882686 C247.87206,20.6410017 247.242905,19.4398876 245.984576,18.6848903 C244.726248,17.9298929 242.861661,17.5523999 240.390761,17.5523999 L234.625355,17.5523999 L234.625355,27.5732234 L240.939847,27.5732234 C243.136203,27.5732234 244.840641,27.1270953 246.053212,26.2348257 C247.265784,25.3425562 247.87206,24.0270503 247.87206,22.2882686 Z M249.450683,41.5749219 C249.450683,39.5615957 248.695697,38.1660156 247.185702,37.3881395 C245.675708,36.6102635 243.662412,36.2213313 241.145754,36.2213313 L234.625355,36.2213313 L234.625355,47.3403272 L241.21439,47.3403272 C242.129538,47.3403272 243.07899,47.260253 244.062775,47.100102 C245.046559,46.9399511 245.938815,46.6539715 246.73957,46.2421548 C247.540325,45.8303381 248.192358,45.2469398 248.69569,44.4919425 C249.199021,43.7369452 249.450683,42.7646147 249.450683,41.5749219 Z M288.50444,41.9181008 L287.063089,41.9181008 C285.827639,41.9181008 284.580768,41.9752967 283.322439,42.0896903 C282.06411,42.2040838 280.94307,42.4214283 279.959286,42.7417302 C278.975502,43.0620321 278.16332,43.5310385 277.522716,44.1487636 C276.882112,44.7664887 276.561815,45.5786706 276.561815,46.5853337 C276.561815,47.2259375 276.710524,47.7750182 277.007948,48.2325923 C277.305371,48.6901665 277.682864,49.0562203 278.140438,49.3307648 C278.598012,49.6053092 279.124214,49.7997753 279.719061,49.9141689 C280.313907,50.0285624 280.885866,50.0857583 281.434955,50.0857583 C283.722826,50.0857583 285.473021,49.4566033 286.685592,48.1982744 C287.898164,46.9399456 288.50444,45.2355075 288.50444,43.084909 L288.50444,41.9181008 Z M267.845071,27.2986803 C269.858398,25.3768689 272.20343,23.935532 274.880239,22.9746263 C277.557047,22.0137206 280.291012,21.533275 283.082214,21.533275 C285.964931,21.533275 288.401477,21.8878896 290.391924,22.5971296 C292.382372,23.3063695 293.995296,24.4045309 295.230747,25.8916469 C296.466197,27.3787628 297.369892,29.2547886 297.94186,31.5197806 C298.513827,33.7847726 298.799807,36.4729803 298.799807,39.5844844 L298.799807,56.8120645 L288.50444,56.8120645 L288.50444,53.1743683 L288.298533,53.1743683 C287.429142,54.5928481 286.113636,55.6910096 284.351976,56.4688856 C282.590315,57.2467616 280.679972,57.6356938 278.620888,57.6356938 C277.248166,57.6356938 275.829707,57.4526669 274.36547,57.0866076 C272.901233,56.7205483 271.562849,56.1257108 270.350277,55.3020774 C269.137706,54.4784439 268.142497,53.3802825 267.364621,52.0075601 C266.586745,50.6348377 266.197813,48.9418388 266.197813,46.9285126 C266.197813,44.4576122 266.872724,42.4671946 268.222568,40.9571999 C269.572412,39.4472053 271.311168,38.2804088 273.438887,37.4567753 C275.566607,36.6331419 277.934518,36.0840611 280.54269,35.8095167 C283.150863,35.5349722 285.690361,35.397702 288.161261,35.397702 L288.161261,34.8486158 C288.161261,33.1555915 287.566424,31.9087207 286.376731,31.1079659 C285.187039,30.3072112 283.722823,29.9068398 281.984042,29.9068398 C280.382532,29.9068398 278.838243,30.2500153 277.351127,30.9363765 C275.864011,31.6227377 274.594261,32.4463588 273.541841,33.4072645 L267.845071,27.2986803 Z M329.617271,56.8120645 L329.617271,38.1431331 C329.617271,37.1822274 329.537197,36.2670929 329.377046,35.397702 C329.216895,34.5283111 328.953794,33.761886 328.587734,33.0984035 C328.221675,32.434921 327.706912,31.9087186 327.043429,31.5197806 C326.379947,31.1308426 325.544886,30.9363765 324.538223,30.9363765 C323.53156,30.9363765 322.650743,31.1308426 321.895746,31.5197806 C321.140749,31.9087186 320.511594,32.4463601 320.008262,33.1327214 C319.504931,33.8190826 319.127438,34.6083861 318.875772,35.5006557 C318.624106,36.3929252 318.498275,37.319499 318.498275,38.2804046 L318.498275,56.8120645 L307.173372,56.8120645 L307.173372,22.6314474 L318.08646,22.6314474 L318.08646,27.3673161 L318.223732,27.3673161 C318.635549,26.6351975 319.17319,25.914529 319.836673,25.2052891 C320.500155,24.4960492 321.278019,23.8897725 322.170289,23.386441 C323.062559,22.8831094 324.034889,22.4712989 325.08731,22.150997 C326.13973,21.8306951 327.26077,21.6705466 328.450463,21.6705466 C330.738333,21.6705466 332.682994,22.0823571 334.284504,22.9059906 C335.886013,23.729624 337.178641,24.7934679 338.162425,26.0975542 C339.14621,27.4016405 339.855439,28.9001733 340.290134,30.5931976 C340.72483,32.2862219 340.942174,33.9792208 340.942174,35.6722451 L340.942174,56.8120645 L329.617271,56.8120645 Z M386.173151,56.8120645 L372.240089,56.8120645 L361.052457,40.4081137 L360.846549,40.4081137 L360.846549,56.8120645 L349.521646,56.8120645 L349.521646,4.92341693 L360.846549,4.92341693 L360.846549,36.4958744 L361.052457,36.4958744 L371.965545,22.6314474 L385.624065,22.6314474 L372.445996,38.0744973 L386.173151,56.8120645 Z" id="DeBank" fill="#19233C" fill-rule="nonzero"></path>
            <path d="M141.802821,94.0327139 L141.802821,83.7952477 L150.673069,70.4231826 L145.804437,70.4231826 L139.802013,80.3605277 L133.866284,70.4231826 L128.730877,70.4231826 L137.601125,83.7952477 L137.601125,94.0327139 L141.802821,94.0327139 Z M157.109,94.4995691 C158.309485,94.4995691 159.443276,94.2883727 160.510374,93.86598 C161.577471,93.4435872 162.500066,92.8600183 163.278158,92.1152732 C164.05625,91.3705281 164.673165,90.4757224 165.128905,89.4308561 C165.584644,88.3859899 165.812514,87.2299676 165.812514,85.9627894 C165.812514,84.6956112 165.584644,83.5451467 165.128905,82.511396 C164.673165,81.4776454 164.05625,80.5939553 163.278158,79.8603258 C162.500066,79.1266963 161.577471,78.5598007 160.510374,78.1596392 C159.443276,77.7594777 158.309485,77.5593969 157.109,77.5593969 C155.908516,77.5593969 154.774725,77.7594777 153.707627,78.1596392 C152.64053,78.5598007 151.717935,79.1266963 150.939843,79.8603258 C150.161751,80.5939553 149.544836,81.4776454 149.089096,82.511396 C148.633357,83.5451467 148.405487,84.6956112 148.405487,85.9627894 C148.405487,87.2299676 148.633357,88.3859899 149.089096,89.4308561 C149.544836,90.4757224 150.161751,91.3705281 150.939843,92.1152732 C151.717935,92.8600183 152.64053,93.4435872 153.707627,93.86598 C154.774725,94.2883727 155.908516,94.4995691 157.109,94.4995691 Z M157.109,91.1648895 C156.308677,91.1648895 155.61951,91.0092711 155.041499,90.6980344 C154.463488,90.3867976 153.985517,89.9866361 153.607587,89.4975497 C153.229657,89.0084634 152.946209,88.4526835 152.757244,87.83021 C152.568278,87.2077364 152.473796,86.5852629 152.473796,85.9627894 C152.473796,85.3403159 152.568278,84.7234002 152.757244,84.1120422 C152.946209,83.5006843 153.229657,82.9504622 153.607587,82.4613758 C153.985517,81.9722895 154.463488,81.5776858 155.041499,81.2775646 C155.61951,80.9774434 156.308677,80.8273829 157.109,80.8273829 C157.909324,80.8273829 158.598491,80.9774434 159.176502,81.2775646 C159.754513,81.5776858 160.232484,81.9722895 160.610414,82.4613758 C160.988344,82.9504622 161.271792,83.5006843 161.460757,84.1120422 C161.649722,84.7234002 161.744205,85.3403159 161.744205,85.9627894 C161.744205,86.5852629 161.649722,87.2077364 161.460757,87.83021 C161.271792,88.4526835 160.988344,89.0084634 160.610414,89.4975497 C160.232484,89.9866361 159.754513,90.3867976 159.176502,90.6980344 C158.598491,91.0092711 157.909324,91.1648895 157.109,91.1648895 Z M175.449738,94.4995691 C176.650223,94.4995691 177.689531,94.1938901 178.567663,93.5825322 C179.445796,92.9711743 180.062711,92.2653338 180.418411,91.4650107 L180.485104,91.4650107 L180.485104,94.0327139 L184.286639,94.0327139 L184.286639,78.026252 L180.285023,78.026252 L180.285023,86.8298061 C180.285023,87.3633548 180.207214,87.8913457 180.051596,88.4137789 C179.895977,88.936212 179.668108,89.3975093 179.367987,89.7976709 C179.067865,90.1978324 178.678819,90.5257426 178.200849,90.7814014 C177.722878,91.0370601 177.172656,91.1648895 176.550182,91.1648895 C175.905478,91.1648895 175.388602,91.0315023 174.999556,90.764728 C174.61051,90.4979536 174.304831,90.1589278 174.082519,89.7476507 C173.860207,89.3363736 173.715705,88.8750762 173.649011,88.3637587 C173.582318,87.8524411 173.548971,87.3633548 173.548971,86.8964997 L173.548971,78.026252 L169.547355,78.026252 L169.547355,88.0302907 C169.547355,88.852845 169.658511,89.6531681 169.880823,90.43126 C170.103135,91.2093519 170.453277,91.898519 170.931247,92.4987613 C171.409218,93.0990037 172.020576,93.5825322 172.765321,93.949347 C173.510066,94.3161617 174.404872,94.4995691 175.449738,94.4995691 Z M193.090193,94.0327139 L193.090193,85.4625875 C193.090193,85.1735819 193.145771,84.7845359 193.256927,84.2954496 C193.368083,83.8063633 193.579279,83.3283925 193.890516,82.8615374 C194.201753,82.3946823 194.635261,81.9945207 195.191041,81.6610527 C195.746821,81.3275848 196.480451,81.1608508 197.39193,81.1608508 C197.569779,81.1608508 197.753187,81.1719664 197.942152,81.1941976 C198.131117,81.2164288 198.358987,81.2608912 198.625761,81.3275848 L198.625761,77.6594373 C198.492374,77.6149749 198.336755,77.5871859 198.158906,77.5760703 C197.981056,77.5649547 197.814322,77.5593969 197.658704,77.5593969 C196.591607,77.5593969 195.657896,77.8484024 194.857573,78.4264136 C194.05725,79.0044247 193.434777,79.7602854 192.990153,80.6939957 L192.923459,80.6939957 L192.923459,78.026252 L189.088577,78.026252 L189.088577,94.0327139 L193.090193,94.0327139 Z M218.133637,94.0327139 C219.667589,94.0327139 221.212657,93.8048442 222.768841,93.3491046 C224.325025,92.8933651 225.72559,92.1875246 226.970537,91.2315831 C228.215484,90.2756416 229.227004,89.0529258 230.005096,87.5634356 C230.783188,86.0739454 231.172234,84.2954496 231.172234,82.2279483 C231.172234,80.0048286 230.783188,78.1429658 230.005096,76.64236 C229.227004,75.1417542 228.215484,73.9301539 226.970537,73.0075593 C225.72559,72.0849646 224.325025,71.4235865 222.768841,71.0234249 C221.212657,70.6232634 219.667589,70.4231826 218.133637,70.4231826 L209.763591,70.4231826 L209.763591,94.0327139 L218.133637,94.0327139 Z M213.965287,90.3645664 L213.965287,74.0246365 L217.466701,74.0246365 C218.556029,74.0246365 219.645358,74.1357925 220.734687,74.3581045 C221.824015,74.5804165 222.807746,74.9916936 223.685878,75.5919359 C224.56401,76.1921783 225.280966,77.0258481 225.836746,78.0929456 C226.392526,79.1600431 226.670416,80.5383773 226.670416,82.2279483 C226.670416,83.8285945 226.392526,85.1513507 225.836746,86.196217 C225.280966,87.2410832 224.56401,88.0691953 223.685878,88.6805532 C222.807746,89.2919112 221.824015,89.7254195 220.734687,89.9810783 C219.645358,90.236737 218.556029,90.3645664 217.466701,90.3645664 L213.965287,90.3645664 Z M242.710225,94.4995691 C245.711437,94.4995691 248.00125,93.4324716 249.579665,91.2982767 L246.911921,89.1640818 C246.467297,89.8087865 245.900402,90.3145462 245.211235,90.681361 C244.522068,91.0481757 243.677282,91.2315831 242.676878,91.2315831 C242.098867,91.2315831 241.543087,91.1315427 241.009538,90.9314619 C240.47599,90.7313812 239.998019,90.459049 239.575626,90.1144655 C239.153233,89.7698819 238.814208,89.3586048 238.558549,88.880634 C238.30289,88.4026633 238.15283,87.8746723 238.108367,87.2966612 L250.279948,87.2966612 C250.302179,87.1188116 250.313294,86.9409621 250.313294,86.7631125 L250.313294,86.2295638 C250.313294,84.7845359 250.118771,83.5229155 249.729725,82.4447024 C249.34068,81.3664894 248.801573,80.4661259 248.112406,79.743612 C247.423239,79.0210981 246.606242,78.4764338 245.661416,78.109619 C244.71659,77.7428043 243.688398,77.5593969 242.576838,77.5593969 C241.376353,77.5593969 240.259235,77.7650355 239.225485,78.1763126 C238.191734,78.5875897 237.296928,79.1656009 236.541068,79.910346 C235.785207,80.6550911 235.190523,81.5554546 234.757014,82.6114364 C234.323506,83.6674183 234.106752,84.8401139 234.106752,86.1295234 C234.106752,87.441164 234.323506,88.6138596 234.757014,89.6476103 C235.190523,90.681361 235.790765,91.5539355 236.557741,92.2653338 C237.324717,92.9767321 238.230639,93.5269542 239.275505,93.9160002 C240.320371,94.3050461 241.465278,94.4995691 242.710225,94.4995691 Z M238.108367,84.4288368 C238.197292,83.2950457 238.658589,82.3668933 239.492259,81.6443794 C240.325929,80.9218654 241.343006,80.5606085 242.543491,80.5606085 C243.188196,80.5606085 243.749533,80.6662067 244.227504,80.8774031 C244.705475,81.0885994 245.100079,81.3720472 245.411315,81.7277463 C245.722552,82.0834455 245.950422,82.4947226 246.094925,82.9615778 C246.239428,83.4284329 246.311679,83.9175193 246.311679,84.4288368 L238.108367,84.4288368 Z M258.5833,94.0327139 L258.5833,84.0953688 L268.9875,84.0953688 L268.9875,80.5606085 L258.5833,80.5606085 L258.5833,74.0913301 L269.621089,74.0913301 L269.621089,70.4231826 L254.381603,70.4231826 L254.381603,94.0327139 L258.5833,94.0327139 Z M274.723149,74.9916936 C275.456778,74.9916936 276.073694,74.7638238 276.573896,74.3080843 C277.074098,73.8523448 277.324199,73.2798914 277.324199,72.5907243 C277.324199,71.9015572 277.074098,71.3291039 276.573896,70.8733643 C276.073694,70.4176248 275.456778,70.189755 274.723149,70.189755 C273.989519,70.189755 273.383719,70.4287404 272.905748,70.9067111 C272.427778,71.3846819 272.188792,71.9460196 272.188792,72.5907243 C272.188792,73.235429 272.427778,73.7967668 272.905748,74.2747375 C273.383719,74.7527082 273.989519,74.9916936 274.723149,74.9916936 Z M276.757303,94.0327139 L276.757303,78.026252 L272.755688,78.026252 L272.755688,94.0327139 L276.757303,94.0327139 Z M298.33268,94.0327139 L303.868248,76.3255654 L303.934942,76.3255654 L309.47051,94.0327139 L313.538819,94.0327139 L320.441606,70.4231826 L315.973135,70.4231826 L311.304584,87.7635164 L311.23789,87.7635164 L306.13583,70.4231826 L301.800747,70.4231826 L296.598647,87.7635164 L296.531953,87.7635164 L291.963442,70.4231826 L287.361584,70.4231826 L294.264371,94.0327139 L298.33268,94.0327139 Z M326.710803,94.4328755 C327.844594,94.4328755 328.856114,94.2050057 329.745362,93.7492662 C330.63461,93.2935266 331.279314,92.7099577 331.679476,91.9985594 L331.779516,91.9985594 L331.779516,94.0327139 L335.514357,94.0327139 L335.514357,84.2954496 C335.514357,83.4951265 335.408759,82.6948034 335.197563,81.8944803 C334.986366,81.0941572 334.613994,80.3716433 334.080445,79.7269386 C333.546896,79.0822339 332.818825,78.5598007 331.89623,78.1596392 C330.973635,77.7594777 329.80094,77.5593969 328.378143,77.5593969 C327.155427,77.5593969 325.949385,77.7705933 324.760016,78.192986 C323.570647,78.6153787 322.520223,79.2489679 321.608744,80.0937534 L323.676245,82.5280694 C324.187562,82.0167519 324.832267,81.5832436 325.610359,81.2275444 C326.388451,80.8718453 327.19989,80.6939957 328.044675,80.6939957 C329.045079,80.6939957 329.906538,80.932981 330.629052,81.4109518 C331.351566,81.8889225 331.712823,82.6281098 331.712823,83.6285137 L331.712823,84.0286752 C330.467876,84.0286752 329.19514,84.089811 327.894615,84.2120826 C326.59409,84.3343542 325.410278,84.5844552 324.343181,84.9623855 C323.276083,85.3403159 322.403509,85.8849802 321.725457,86.5963785 C321.047406,87.3077768 320.70838,88.2637183 320.70838,89.4642029 C320.70838,90.3979132 320.902903,91.1815629 321.291949,91.815152 C321.680995,92.4487412 322.170081,92.9600587 322.759208,93.3491046 C323.348335,93.7381506 323.993039,94.0160406 324.693322,94.1827745 C325.393605,94.3495085 326.066099,94.4328755 326.710803,94.4328755 Z M327.511126,91.3983171 C327.177658,91.3983171 326.84419,91.3649703 326.510723,91.2982767 C326.177255,91.2315831 325.877133,91.1204271 325.610359,90.9648087 C325.343585,90.8091904 325.12683,90.6035518 324.960097,90.347893 C324.793363,90.0922343 324.709996,89.7754397 324.709996,89.3975093 C324.709996,88.797267 324.910076,88.3248541 325.310238,87.9802705 C325.710399,87.635687 326.210601,87.3689126 326.810844,87.1799474 C327.411086,86.9909823 328.066906,86.8687107 328.778305,86.8131327 C329.489703,86.7575547 330.167754,86.7297657 330.812459,86.7297657 L331.712823,86.7297657 L331.712823,87.2966612 C331.712823,88.5638395 331.357123,89.5642433 330.645725,90.2978728 C329.934327,91.0315023 328.889461,91.3983171 327.511126,91.3983171 Z M344.251218,94.0327139 L344.251218,68.8225364 L340.249602,68.8225364 L340.249602,94.0327139 L344.251218,94.0327139 Z M353.188159,94.0327139 L353.188159,68.8225364 L349.186544,68.8225364 L349.186544,94.0327139 L353.188159,94.0327139 Z M365.726554,94.4995691 C368.727766,94.4995691 371.017579,93.4324716 372.595994,91.2982767 L369.928251,89.1640818 C369.483627,89.8087865 368.916731,90.3145462 368.227564,90.681361 C367.538397,91.0481757 366.693611,91.2315831 365.693207,91.2315831 C365.115196,91.2315831 364.559416,91.1315427 364.025868,90.9314619 C363.492319,90.7313812 363.014348,90.459049 362.591955,90.1144655 C362.169563,89.7698819 361.830537,89.3586048 361.574878,88.880634 C361.319219,88.4026633 361.169159,87.8746723 361.124696,87.2966612 L373.296277,87.2966612 C373.318508,87.1188116 373.329624,86.9409621 373.329624,86.7631125 L373.329624,86.2295638 C373.329624,84.7845359 373.135101,83.5229155 372.746055,82.4447024 C372.357009,81.3664894 371.817902,80.4661259 371.128735,79.743612 C370.439568,79.0210981 369.622572,78.4764338 368.677746,78.109619 C367.73292,77.7428043 366.704727,77.5593969 365.593167,77.5593969 C364.392682,77.5593969 363.275565,77.7650355 362.241814,78.1763126 C361.208063,78.5875897 360.313258,79.1656009 359.557397,79.910346 C358.801536,80.6550911 358.206852,81.5554546 357.773343,82.6114364 C357.339835,83.6674183 357.123081,84.8401139 357.123081,86.1295234 C357.123081,87.441164 357.339835,88.6138596 357.773343,89.6476103 C358.206852,90.681361 358.807094,91.5539355 359.57407,92.2653338 C360.341047,92.9767321 361.246968,93.5269542 362.291834,93.9160002 C363.336701,94.3050461 364.481607,94.4995691 365.726554,94.4995691 Z M361.124696,84.4288368 C361.213621,83.2950457 361.674919,82.3668933 362.508588,81.6443794 C363.342258,80.9218654 364.359336,80.5606085 365.55982,80.5606085 C366.204525,80.5606085 366.765863,80.6662067 367.243833,80.8774031 C367.721804,81.0885994 368.116408,81.3720472 368.427645,81.7277463 C368.738881,82.0834455 368.966751,82.4947226 369.111254,82.9615778 C369.255757,83.4284329 369.328008,83.9175193 369.328008,84.4288368 L361.124696,84.4288368 Z M382.900154,94.3661819 C383.344778,94.3661819 383.811633,94.3272773 384.300719,94.2494681 C384.789806,94.1716589 385.212199,94.0660607 385.567898,93.9326736 L385.43451,90.7980748 C385.189967,90.9092308 384.912077,90.9925977 384.600841,91.0481757 C384.289604,91.1037537 384.000598,91.1315427 383.733824,91.1315427 C382.844576,91.1315427 382.272123,90.8981152 382.016464,90.43126 C381.760805,89.9644049 381.632976,89.3752782 381.632976,88.6638798 L381.632976,81.2275444 L385.634591,81.2275444 L385.634591,78.026252 L381.632976,78.026252 L381.632976,73.3910474 L377.698054,73.3910474 L377.698054,78.026252 L374.896923,78.026252 L374.896923,81.2275444 L377.698054,81.2275444 L377.698054,88.6972266 C377.698054,89.4753185 377.770305,90.2033902 377.914808,90.8814418 C378.059311,91.5594933 378.326085,92.1597356 378.715131,92.6821687 C379.104177,93.2046019 379.632168,93.615879 380.299104,93.9160002 C380.96604,94.2161213 381.833057,94.3661819 382.900154,94.3661819 Z" id="YourDeFiWallet" fill="#19233C" fill-rule="nonzero" opacity="0.600000024"></path>
        </g>
    </g>
</svg>